<?xml version="1.0" encoding="UTF-8"?>
<!DOCTYPE svg PUBLIC "-//W3C//DTD SVG 1.1//EN" "http://www.w3.org/Graphics/SVG/1.1/DTD/svg11.dtd">
<svg xmlns="http://www.w3.org/2000/svg" version="1.1" width="225px" height="225px" style="shape-rendering:geometricPrecision; text-rendering:geometricPrecision; image-rendering:optimizeQuality; fill-rule:evenodd; clip-rule:evenodd" xmlns:xlink="http://www.w3.org/1999/xlink">
<g><path style="opacity:1" fill="#0d1010" d="M 139.5,36.5 C 142.051,39.5576 144.885,42.5576 148,45.5C 149,47.5 150,49.5 151,51.5C 151.383,50.944 151.883,50.6107 152.5,50.5C 153.757,54.0315 154.591,57.6982 155,61.5C 155.333,79.8333 155.667,98.1667 156,116.5C 156.608,118.154 157.108,119.821 157.5,121.5C 158.318,125.475 159.984,129.141 162.5,132.5C 161.048,133.94 160.048,135.606 159.5,137.5C 155.766,141.548 151.766,145.381 147.5,149C 146.271,149.781 144.938,150.281 143.5,150.5C 137.767,147.102 133.434,142.435 130.5,136.5C 130.157,134.775 129.157,134.275 127.5,135C 124.414,138.757 120.748,141.757 116.5,144C 115.748,144.671 115.414,145.504 115.5,146.5C 103.033,152.796 90.3667,152.963 77.5,147C 64.8202,137.148 60.3202,124.315 64,108.5C 68.7288,92.7047 79.2288,83.2047 95.5,80C 105.05,77.8463 114.716,76.6797 124.5,76.5C 127.541,56.3619 119.541,49.5286 100.5,56C 96.8549,59.453 94.3549,63.6197 93,68.5C 84.8623,69.1192 76.6957,68.6192 68.5,67C 67.1059,66.044 66.4393,64.7106 66.5,63C 70.7841,44.3869 82.4508,33.7202 101.5,31C 109.167,30.3333 116.833,30.3333 124.5,31C 129.995,31.773 134.995,33.6063 139.5,36.5 Z M 115.5,93.5 C 118.85,93.335 122.183,93.5017 125.5,94C 124.688,100.085 124.188,106.252 124,112.5C 122.251,122.416 116.417,128.083 106.5,129.5C 100.322,128.82 96.4889,125.487 95,119.5C 93.442,104.224 100.275,95.5574 115.5,93.5 Z"/></g>
<g><path style="opacity:1" fill="#303030" d="M 139.5,36.5 C 145.874,39.2093 150.207,43.876 152.5,50.5C 151.883,50.6107 151.383,50.944 151,51.5C 150,49.5 149,47.5 148,45.5C 144.885,42.5576 142.051,39.5576 139.5,36.5 Z"/></g>
<g><path style="opacity:1" fill="#373838" d="M 157.5,121.5 C 160.204,124.883 162.537,128.549 164.5,132.5C 163.819,135.181 162.152,136.848 159.5,137.5C 160.048,135.606 161.048,133.94 162.5,132.5C 159.984,129.141 158.318,125.475 157.5,121.5 Z"/></g>
<g><path style="opacity:1" fill="#2f3030" d="M 130.5,136.5 C 125.672,140.081 120.672,143.415 115.5,146.5C 115.414,145.504 115.748,144.671 116.5,144C 120.748,141.757 124.414,138.757 127.5,135C 129.157,134.275 130.157,134.775 130.5,136.5 Z"/></g>
<g><path style="opacity:1" fill="#faa33d" d="M 169.5,150.5 C 174.179,150.334 178.845,150.501 183.5,151C 184.766,151.309 185.933,151.809 187,152.5C 188.008,163.474 184.342,172.474 176,179.5C 175.308,178.975 174.808,178.308 174.5,177.5C 177.772,171.532 179.272,165.199 179,158.5C 172.667,157.167 166.333,157.167 160,158.5C 159.308,157.975 158.808,157.308 158.5,156.5C 161.788,153.691 165.455,151.691 169.5,150.5 Z"/></g>
<g><path style="opacity:1" fill="#f99d2d" d="M 37.5,151.5 C 47.4938,157.499 57.8271,162.999 68.5,168C 103.998,181.128 138.498,178.961 172,161.5C 173.236,162.399 174.07,163.566 174.5,165C 172.888,167.616 170.888,169.95 168.5,172C 128.233,198.582 88.8995,197.249 50.5,168C 46.3333,163.833 42.1667,159.667 38,155.5C 37.51,154.207 37.3433,152.873 37.5,151.5 Z"/></g>
</svg>
