<?xml version="1.0" encoding="UTF-8"?>
<!DOCTYPE svg PUBLIC "-//W3C//DTD SVG 1.1//EN" "http://www.w3.org/Graphics/SVG/1.1/DTD/svg11.dtd">
<svg xmlns="http://www.w3.org/2000/svg" version="1.1" width="189px" height="148px" style="shape-rendering:geometricPrecision; text-rendering:geometricPrecision; image-rendering:optimizeQuality; fill-rule:evenodd; clip-rule:evenodd" xmlns:xlink="http://www.w3.org/1999/xlink">
<g><path style="opacity:1" fill="#fefefe" d="M -0.5,-0.5 C 62.5,-0.5 125.5,-0.5 188.5,-0.5C 188.5,16.8333 188.5,34.1667 188.5,51.5C 185.994,48.9142 183.494,48.9142 181,51.5C 175.086,62.3302 168.919,72.9968 162.5,83.5C 154.97,72.2836 147.303,61.117 139.5,50C 135.652,49.0134 133.652,50.5134 133.5,54.5C 126.143,49.94 118.143,48.44 109.5,50C 104.143,52.1408 100.476,55.8074 98.5,61C 98.5428,63.3759 99.7095,64.8759 102,65.5C 104.852,62.671 108.018,60.171 111.5,58C 119.575,56.3589 126.409,58.5256 132,64.5C 132.49,65.7932 132.657,67.1266 132.5,68.5C 124.826,68.3336 117.159,68.5003 109.5,69C 103.629,69.6152 98.7955,72.1152 95,76.5C 94.5034,78.8098 94.3367,81.1432 94.5,83.5C 93.5655,82.4324 93.2322,81.099 93.5,79.5C 94.5328,58.3657 84.5328,48.5323 63.5,50C 60.6714,51.2467 58.0048,52.7467 55.5,54.5C 54.6694,48.1928 54.1694,41.8594 54,35.5C 51.1598,32.6293 48.8265,32.9626 47,36.5C 46.5002,46.828 46.3335,57.1613 46.5,67.5C 41.3716,53.7565 31.3716,47.9232 16.5,50C 7.43644,53.6795 1.76977,60.1795 -0.5,69.5C -0.5,46.1667 -0.5,22.8333 -0.5,-0.5 Z"/></g>
<g><path style="opacity:1" fill="#2e98f3" d="M 93.5,79.5 C 85.1537,96.9481 72.487,100.948 55.5,91.5C 54.2077,96.7934 51.3743,97.7934 47,94.5C 46.5026,91.854 46.3359,89.1873 46.5,86.5C 46.5,85.1667 46.5,83.8333 46.5,82.5C 46.5,80.1667 46.5,77.8333 46.5,75.5C 46.5,72.8333 46.5,70.1667 46.5,67.5C 46.3335,57.1613 46.5002,46.828 47,36.5C 48.8265,32.9626 51.1598,32.6293 54,35.5C 54.1694,41.8594 54.6694,48.1928 55.5,54.5C 58.0048,52.7467 60.6714,51.2467 63.5,50C 84.5328,48.5323 94.5328,58.3657 93.5,79.5 Z"/></g>
<g><path style="opacity:1" fill="#f44436" d="M 46.5,67.5 C 46.5,70.1667 46.5,72.8333 46.5,75.5C 45.8333,75.8333 45.1667,76.1667 44.5,76.5C 32.1487,76.1676 19.8153,76.501 7.5,77.5C 7.62358,78.1067 7.95691,78.44 8.5,78.5C 9.92128,83.0898 12.9213,86.2565 17.5,88C 24.0544,89.0807 30.3877,88.414 36.5,86C 38.8613,81.7702 42.1946,80.6036 46.5,82.5C 46.5,83.8333 46.5,85.1667 46.5,86.5C 38.7809,96.0722 28.7809,99.2389 16.5,96C 6.67304,92.4619 1.00637,85.6285 -0.5,75.5C -0.5,73.5 -0.5,71.5 -0.5,69.5C 1.76977,60.1795 7.43644,53.6795 16.5,50C 31.3716,47.9232 41.3716,53.7565 46.5,67.5 Z"/></g>
<g><path style="opacity:1" fill="#ffc21f" d="M 133.5,54.5 C 136.429,58.694 139.095,63.0274 141.5,67.5C 141.666,76.5062 141.5,85.5062 141,94.5C 135.972,97.9878 133.139,96.6545 132.5,90.5C 124.354,96.1642 115.354,97.9975 105.5,96C 99.1605,94.1619 95.4939,89.9952 94.5,83.5C 94.3367,81.1432 94.5034,78.8098 95,76.5C 98.7955,72.1152 103.629,69.6152 109.5,69C 117.159,68.5003 124.826,68.3336 132.5,68.5C 132.657,67.1266 132.49,65.7932 132,64.5C 126.409,58.5256 119.575,56.3589 111.5,58C 108.018,60.171 104.852,62.671 102,65.5C 99.7095,64.8759 98.5428,63.3759 98.5,61C 100.476,55.8074 104.143,52.1408 109.5,50C 118.143,48.44 126.143,49.94 133.5,54.5 Z"/></g>
<g><path style="opacity:1" fill="#4faf51" d="M 188.5,51.5 C 188.5,52.5 188.5,53.5 188.5,54.5C 178.027,72.7707 167.527,91.104 157,109.5C 151.695,113.888 149.362,112.555 150,105.5C 152.958,101.084 155.792,96.5843 158.5,92C 152.934,83.6799 147.268,75.5132 141.5,67.5C 139.095,63.0274 136.429,58.694 133.5,54.5C 133.652,50.5134 135.652,49.0134 139.5,50C 147.303,61.117 154.97,72.2836 162.5,83.5C 168.919,72.9968 175.086,62.3302 181,51.5C 183.494,48.9142 185.994,48.9142 188.5,51.5 Z"/></g>
<g><path style="opacity:1" fill="#fefefe" d="M 188.5,54.5 C 188.5,85.5 188.5,116.5 188.5,147.5C 125.5,147.5 62.5,147.5 -0.5,147.5C -0.5,123.5 -0.5,99.5 -0.5,75.5C 1.00637,85.6285 6.67304,92.4619 16.5,96C 28.7809,99.2389 38.7809,96.0722 46.5,86.5C 46.3359,89.1873 46.5026,91.854 47,94.5C 51.3743,97.7934 54.2077,96.7934 55.5,91.5C 72.487,100.948 85.1537,96.9481 93.5,79.5C 93.2322,81.099 93.5655,82.4324 94.5,83.5C 95.4939,89.9952 99.1605,94.1619 105.5,96C 115.354,97.9975 124.354,96.1642 132.5,90.5C 133.139,96.6545 135.972,97.9878 141,94.5C 141.5,85.5062 141.666,76.5062 141.5,67.5C 147.268,75.5132 152.934,83.6799 158.5,92C 155.792,96.5843 152.958,101.084 150,105.5C 149.362,112.555 151.695,113.888 157,109.5C 167.527,91.104 178.027,72.7707 188.5,54.5 Z"/></g>
<g><path style="opacity:1" fill="#fffafa" d="M 37.5,67.5 C 27.8333,68.8333 18.1667,68.8333 8.5,67.5C 13.8399,57.3337 21.8399,54.8337 32.5,60C 35.1998,61.8567 36.8665,64.3567 37.5,67.5 Z"/></g>
<g><path style="opacity:1" fill="#fbfcfe" d="M 65.5,57.5 C 81.1799,57.0015 87.6799,64.3348 85,79.5C 79.5718,87.9761 72.0718,90.4761 62.5,87C 51.0391,75.8578 52.0391,66.0245 65.5,57.5 Z"/></g>
<g><path style="opacity:1" fill="#fbc4c1" d="M 8.5,67.5 C 18.1667,68.8333 27.8333,68.8333 37.5,67.5C 38.0431,67.56 38.3764,67.8933 38.5,68.5C 28.1667,69.8333 17.8333,69.8333 7.5,68.5C 7.62358,67.8933 7.95691,67.56 8.5,67.5 Z"/></g>
<g><path style="opacity:1" fill="#faafab" d="M 44.5,76.5 C 32.5,77.1667 20.5,77.8333 8.5,78.5C 7.95691,78.44 7.62358,78.1067 7.5,77.5C 19.8153,76.501 32.1487,76.1676 44.5,76.5 Z"/></g>
<g><path style="opacity:1" fill="#fffbfa" d="M 46.5,75.5 C 46.5,77.8333 46.5,80.1667 46.5,82.5C 42.1946,80.6036 38.8613,81.7702 36.5,86C 30.3877,88.414 24.0544,89.0807 17.5,88C 12.9213,86.2565 9.92128,83.0898 8.5,78.5C 20.5,77.8333 32.5,77.1667 44.5,76.5C 45.1667,76.1667 45.8333,75.8333 46.5,75.5 Z"/></g>
<g><path style="opacity:1" fill="#fffcf6" d="M 109.5,76.5 C 117.167,76.5 124.833,76.5 132.5,76.5C 130.253,82.5744 125.92,86.4077 119.5,88C 115.167,88.6667 110.833,88.6667 106.5,88C 102.512,86.516 100.846,83.6826 101.5,79.5C 104.443,79.0198 107.11,78.0198 109.5,76.5 Z"/></g>
</svg>
