<?xml version="1.0" encoding="UTF-8"?>
<!DOCTYPE svg PUBLIC "-//W3C//DTD SVG 1.1//EN" "http://www.w3.org/Graphics/SVG/1.1/DTD/svg11.dtd">
<svg xmlns="http://www.w3.org/2000/svg" version="1.1" width="211px" height="239px" style="shape-rendering:geometricPrecision; text-rendering:geometricPrecision; image-rendering:optimizeQuality; fill-rule:evenodd; clip-rule:evenodd" xmlns:xlink="http://www.w3.org/1999/xlink">
<g><path style="opacity:1" fill="#fefefd" d="M -0.5,-0.5 C 29.1667,-0.5 58.8333,-0.5 88.5,-0.5C 72.0948,7.41864 60.5948,20.0853 54,37.5C 51.3448,43.9438 49.5115,50.6104 48.5,57.5C 39.7802,59.6813 31.1135,62.1813 22.5,65C 21.0692,65.4652 19.9025,66.2986 19,67.5C 12.1383,116.09 5.97162,164.757 0.5,213.5C 49.0456,221.312 97.3789,229.646 145.5,238.5C 96.8333,238.5 48.1667,238.5 -0.5,238.5C -0.5,158.833 -0.5,79.1667 -0.5,-0.5 Z"/></g>
<g><path style="opacity:1" fill="#95bf47" d="M 88.5,-0.5 C 92.1667,-0.5 95.8333,-0.5 99.5,-0.5C 102.916,0.719601 105.916,2.7196 108.5,5.5C 123.16,7.16102 132.16,15.161 135.5,29.5C 139.085,28.4172 142.751,27.7506 146.5,27.5C 146.5,97.8333 146.5,168.167 146.5,238.5C 146.167,238.5 145.833,238.5 145.5,238.5C 97.3789,229.646 49.0456,221.312 0.5,213.5C 5.97162,164.757 12.1383,116.09 19,67.5C 19.9025,66.2986 21.0692,65.4652 22.5,65C 31.1135,62.1813 39.7802,59.6813 48.5,57.5C 49.5115,50.6104 51.3448,43.9438 54,37.5C 60.5948,20.0853 72.0948,7.41864 88.5,-0.5 Z"/></g>
<g><path style="opacity:1" fill="#fefefd" d="M 99.5,-0.5 C 136.5,-0.5 173.5,-0.5 210.5,-0.5C 210.5,79.1667 210.5,158.833 210.5,238.5C 189.5,238.5 168.5,238.5 147.5,238.5C 167.594,232.893 187.927,227.726 208.5,223C 209.097,221.938 209.43,220.772 209.5,219.5C 201.241,161.09 192.574,102.756 183.5,44.5C 176.883,43.7038 170.217,43.2038 163.5,43C 158.242,37.2356 152.576,32.069 146.5,27.5C 142.751,27.7506 139.085,28.4172 135.5,29.5C 132.16,15.161 123.16,7.16102 108.5,5.5C 105.916,2.7196 102.916,0.719601 99.5,-0.5 Z"/></g>
<g><path style="opacity:1" fill="#fcfdfb" d="M 88.5,7.5 C 92.7032,7.07611 96.7032,7.57611 100.5,9C 87.4617,18.5626 79.6284,31.396 77,47.5C 70.4368,49.6011 63.9368,51.9344 57.5,54.5C 60.3059,39.0609 67.3059,25.5609 78.5,14C 81.7278,11.5603 85.0611,9.39364 88.5,7.5 Z"/></g>
<g><path style="opacity:1" fill="#fafcf7" d="M 114.5,14.5 C 122.466,17.8139 127.133,23.8139 128.5,32.5C 124.793,32.7915 121.293,33.7915 118,35.5C 117.047,28.4506 115.881,21.4506 114.5,14.5 Z"/></g>
<g><path style="opacity:1" fill="#fcfdfa" d="M 104.5,15.5 C 105.376,15.3691 106.043,15.7025 106.5,16.5C 109.103,23.5902 110.103,30.9236 109.5,38.5C 101.515,40.3284 93.6817,42.6617 86,45.5C 87.8979,32.7887 94.0646,22.7887 104.5,15.5 Z"/></g>
<g><path style="opacity:1" fill="#5e8e3e" d="M 146.5,27.5 C 152.576,32.069 158.242,37.2356 163.5,43C 170.217,43.2038 176.883,43.7038 183.5,44.5C 192.574,102.756 201.241,161.09 209.5,219.5C 209.43,220.772 209.097,221.938 208.5,223C 187.927,227.726 167.594,232.893 147.5,238.5C 147.167,238.5 146.833,238.5 146.5,238.5C 146.5,168.167 146.5,97.8333 146.5,27.5 Z"/></g>
<g><path style="opacity:1" fill="#fdfefc" d="M 88.5,73.5 C 93.1785,73.3342 97.8452,73.5008 102.5,74C 105.79,74.2532 108.79,75.2532 111.5,77C 108.723,85.7209 106.389,94.5542 104.5,103.5C 96.2641,101.653 87.9307,101.153 79.5,102C 71.7872,105.584 69.9539,111.084 74,118.5C 80.7456,123.456 87.5789,128.29 94.5,133C 105.353,143.233 109.187,155.733 106,170.5C 101.064,188.143 89.3973,197.143 71,197.5C 59.181,197.229 48.8476,193.229 40,185.5C 40.2936,178.028 41.6269,170.694 44,163.5C 51.4618,169.657 59.9618,172.491 69.5,172C 73.8678,170.465 76.2011,167.299 76.5,162.5C 75.5298,159.226 74.0298,156.226 72,153.5C 63.3662,148.197 56.0329,141.53 50,133.5C 42.3691,100.438 55.2024,80.4376 88.5,73.5 Z"/></g>
</svg>
