<?xml version="1.0" encoding="UTF-8"?>
<!DOCTYPE svg PUBLIC "-//W3C//DTD SVG 1.1//EN" "http://www.w3.org/Graphics/SVG/1.1/DTD/svg11.dtd">
<svg xmlns="http://www.w3.org/2000/svg" version="1.1" width="225px" height="225px" style="shape-rendering:geometricPrecision; text-rendering:geometricPrecision; image-rendering:optimizeQuality; fill-rule:evenodd; clip-rule:evenodd" xmlns:xlink="http://www.w3.org/1999/xlink">
<g><path style="opacity:1" fill="#fdfdfd" d="M -0.5,-0.5 C 74.5,-0.5 149.5,-0.5 224.5,-0.5C 224.5,22.5 224.5,45.5 224.5,68.5C 218.62,68.0484 212.953,68.8817 207.5,71C 199.463,80.2648 191.796,89.7648 184.5,99.5C 177.633,90.2819 170.633,81.1153 163.5,72C 157.828,68.7332 151.828,67.8998 145.5,69.5C 155.29,83.58 164.957,97.7466 174.5,112C 164.833,126.333 155.167,140.667 145.5,155C 151.859,156.098 157.859,155.098 163.5,152C 170.723,142.952 177.723,133.785 184.5,124.5C 190.143,131.106 195.31,138.106 200,145.5C 205.714,154.126 213.548,157.126 223.5,154.5C 214.036,140.402 204.703,126.236 195.5,112C 205.015,97.6658 214.681,83.4991 224.5,69.5C 224.5,121.167 224.5,172.833 224.5,224.5C 149.5,224.5 74.5,224.5 -0.5,224.5C -0.5,172.833 -0.5,121.167 -0.5,69.5C 7.76602,97.8898 15.4327,126.556 22.5,155.5C 29.252,156.024 35.0853,154.024 40,149.5C 45.631,131.016 50.631,112.349 55,93.5C 55.8793,90.6537 57.5459,89.987 60,91.5C 64.4705,107.049 68.4705,122.715 72,138.5C 73.7435,150.961 80.9101,156.628 93.5,155.5C 100.867,126.568 108.534,97.735 116.5,69C 106.729,67.3019 100.229,71.1353 97,80.5C 93.506,95.9717 89.506,111.305 85,126.5C 81.2601,113.946 77.9268,101.279 75,88.5C 71.3567,73.7618 62.5234,69.2618 48.5,75C 45.5095,77.9904 43.3428,81.4904 42,85.5C 38.7458,99.2648 35.0791,112.932 31,126.5C 26.5915,111.274 22.5915,95.9409 19,80.5C 15.7053,71.4427 9.20525,67.4427 -0.5,68.5C -0.5,45.5 -0.5,22.5 -0.5,-0.5 Z"/></g>
<g><path style="opacity:1" fill="#030303" d="M -0.5,69.5 C -0.5,69.1667 -0.5,68.8333 -0.5,68.5C 9.20525,67.4427 15.7053,71.4427 19,80.5C 22.5915,95.9409 26.5915,111.274 31,126.5C 35.0791,112.932 38.7458,99.2648 42,85.5C 43.3428,81.4904 45.5095,77.9904 48.5,75C 62.5234,69.2618 71.3567,73.7618 75,88.5C 77.9268,101.279 81.2601,113.946 85,126.5C 89.506,111.305 93.506,95.9717 97,80.5C 100.229,71.1353 106.729,67.3019 116.5,69C 108.534,97.735 100.867,126.568 93.5,155.5C 80.9101,156.628 73.7435,150.961 72,138.5C 68.4705,122.715 64.4705,107.049 60,91.5C 57.5459,89.987 55.8793,90.6537 55,93.5C 50.631,112.349 45.631,131.016 40,149.5C 35.0853,154.024 29.252,156.024 22.5,155.5C 15.4327,126.556 7.76602,97.8898 -0.5,69.5 Z"/></g>
<g><path style="opacity:1" fill="#070707" d="M 130.5,68.5 C 132.833,68.5 135.167,68.5 137.5,68.5C 137.693,72.007 137.027,75.3404 135.5,78.5C 131.715,81.7894 127.548,84.456 123,86.5C 120.899,78.3892 123.399,72.3892 130.5,68.5 Z"/></g>
<g><path style="opacity:1" fill="#040404" d="M 224.5,68.5 C 224.5,68.8333 224.5,69.1667 224.5,69.5C 214.681,83.4991 205.015,97.6658 195.5,112C 204.703,126.236 214.036,140.402 223.5,154.5C 213.548,157.126 205.714,154.126 200,145.5C 195.31,138.106 190.143,131.106 184.5,124.5C 177.723,133.785 170.723,142.952 163.5,152C 157.859,155.098 151.859,156.098 145.5,155C 155.167,140.667 164.833,126.333 174.5,112C 164.957,97.7466 155.29,83.58 145.5,69.5C 151.828,67.8998 157.828,68.7332 163.5,72C 170.633,81.1153 177.633,90.2819 184.5,99.5C 191.796,89.7648 199.463,80.2648 207.5,71C 212.953,68.8817 218.62,68.0484 224.5,68.5 Z"/></g>
<g><path style="opacity:1" fill="#010101" d="M 136.5,83.5 C 137.663,104.996 137.829,126.663 137,148.5C 133.827,154.021 128.993,156.354 122.5,155.5C 122.333,134.497 122.5,113.497 123,92.5C 127.824,89.8487 132.324,86.8487 136.5,83.5 Z"/></g>
</svg>
