<svg xmlns="http://www.w3.org/2000/svg" fill="none" viewBox="0 0 202 50" height="50" width="202">
<path fill="#79F241" d="M51.4389 42.2241C50.2218 44.2726 48.8294 46.2309 47.3619 48.1091C47.0264 48.5398 46.0497 48.8303 45.5038 48.6801C35.7872 46.0306 26.3761 45.4796 16.7797 46.8219L22.4344 37.0452C27.3979 37.1654 32.3613 37.3507 37.3248 37.521C38.041 37.5461 38.7472 37.6763 40.0495 37.8265C35.2863 29.5725 30.7386 21.689 25.9404 13.3698C22.1639 19.9009 18.4576 26.3019 14.7212 32.7579C12.4473 36.6946 10.1584 40.6464 7.83946 44.6582C6.93792 46.2159 6.03137 47.7785 5.12482 49.3562C3.24161 46.4863 1.58878 44.0772 0.0862168 41.583C-0.149185 41.1973 0.141311 40.3258 0.431807 39.82C7.58903 27.3637 14.7312 14.9074 21.9786 2.51124C23.952 -0.859515 27.9137 -0.829463 29.8921 2.55632C37.1395 14.9525 44.3067 27.3987 51.4339 39.87C51.7795 40.4761 51.7895 41.633 51.4389 42.2241Z"></path>
<path fill="#79F241" d="M22.3389 32L25.8389 26L29.3554 32H22.3389Z"></path>
<path fill="white" d="M73.7 34H68.225L73.55 14.83H81.635L86.9 34H81.425L77.765 18.385H77.42L73.7 34ZM81.845 29.845H73.25V25.705H81.845V29.845ZM102.596 34H97.2859V25.51C97.2859 25.04 97.2259 24.635 97.1059 24.295C96.9959 23.955 96.8009 23.695 96.5209 23.515C96.2409 23.335 95.8609 23.245 95.3809 23.245C95.0109 23.245 94.6809 23.31 94.3909 23.44C94.1009 23.57 93.8509 23.745 93.6409 23.965C93.4409 24.175 93.2809 24.415 93.1609 24.685L92.3509 22.495H93.2059C93.3559 21.805 93.6059 21.19 93.9559 20.65C94.3159 20.1 94.8109 19.665 95.4409 19.345C96.0809 19.025 96.8959 18.865 97.8859 18.865C98.9659 18.865 99.8509 19.075 100.541 19.495C101.241 19.915 101.756 20.55 102.086 21.4C102.426 22.24 102.596 23.305 102.596 24.595V34ZM93.2209 34H87.9109V19.225H93.1909L93.0259 23.02L93.2209 23.56V34ZM110.589 29.86H113.319L110.469 31.09L113.424 19.225H118.854L113.124 39.16H107.829L110.124 31.39L112.644 33.355H106.794L103.059 19.225H108.519L110.589 29.86ZM135.121 28.855H130.381V24.49H134.611C135.501 24.49 136.136 24.31 136.516 23.95C136.906 23.59 137.101 23.015 137.101 22.225V21.46C137.101 20.67 136.906 20.095 136.516 19.735C136.136 19.365 135.501 19.18 134.611 19.18H130.381V14.83H135.091C137.631 14.83 139.496 15.385 140.686 16.495C141.876 17.595 142.471 19.195 142.471 21.295V22.405C142.471 24.515 141.876 26.12 140.686 27.22C139.496 28.31 137.641 28.855 135.121 28.855ZM132.061 34H126.721V14.83H132.031V25.705L132.061 28.18V34ZM149.222 25.975L147.692 22.975H148.937C149.137 21.725 149.577 20.75 150.257 20.05C150.937 19.34 151.912 18.985 153.182 18.985C153.372 18.985 153.547 18.995 153.707 19.015C153.877 19.035 154.042 19.06 154.202 19.09L154.457 24.49C154.257 24.45 154.017 24.42 153.737 24.4C153.467 24.38 153.202 24.37 152.942 24.37C152.002 24.37 151.222 24.515 150.602 24.805C149.982 25.085 149.522 25.475 149.222 25.975ZM149.297 34H143.987V19.225H148.937L148.727 24.115H149.297V34ZM162.418 34.45C159.948 34.45 158.083 33.85 156.823 32.65C155.573 31.44 154.948 29.765 154.948 27.625V25.75C154.948 23.56 155.578 21.85 156.838 20.62C158.098 19.39 159.958 18.775 162.418 18.775C164.888 18.775 166.748 19.39 167.998 20.62C169.258 21.85 169.888 23.56 169.888 25.75V27.625C169.888 29.765 169.263 31.44 168.013 32.65C166.763 33.85 164.898 34.45 162.418 34.45ZM162.418 30.28C163.128 30.28 163.663 30.07 164.023 29.65C164.393 29.22 164.578 28.61 164.578 27.82V25.54C164.578 24.69 164.393 24.045 164.023 23.605C163.663 23.165 163.128 22.945 162.418 22.945C161.718 22.945 161.183 23.165 160.813 23.605C160.443 24.045 160.258 24.69 160.258 25.54V27.82C160.258 28.61 160.443 29.22 160.813 29.65C161.183 30.07 161.718 30.28 162.418 30.28ZM176.988 13.69C177.818 13.69 178.598 13.755 179.328 13.885C180.058 14.005 180.683 14.15 181.203 14.32L181.653 18.19C181.273 18.1 180.868 18.025 180.438 17.965C180.008 17.895 179.543 17.86 179.043 17.86C178.443 17.86 177.983 17.915 177.663 18.025C177.343 18.135 177.123 18.29 177.003 18.49C176.893 18.69 176.838 18.925 176.838 19.195V19.225C176.838 19.425 176.868 19.6 176.928 19.75C176.998 19.9 177.083 20.045 177.183 20.185L173.778 20.305V19.795C173.188 19.605 172.683 19.295 172.263 18.865C171.853 18.425 171.648 17.845 171.648 17.125V17.05C171.648 15.97 172.078 15.14 172.938 14.56C173.808 13.98 175.158 13.69 176.988 13.69ZM177.438 34H172.158V21.385H177.438V34ZM181.218 24.07H170.313V19.9L174.498 19.945L176.478 19.9H181.653L181.218 24.07ZM188.463 34H183.153V19.225H188.463V34ZM185.808 18.16C184.838 18.16 184.133 17.945 183.693 17.515C183.253 17.075 183.033 16.485 183.033 15.745V15.625C183.033 14.885 183.253 14.3 183.693 13.87C184.133 13.43 184.838 13.21 185.808 13.21C186.768 13.21 187.468 13.43 187.908 13.87C188.358 14.3 188.583 14.885 188.583 15.625V15.745C188.583 16.495 188.358 17.085 187.908 17.515C187.468 17.945 186.768 18.16 185.808 18.16ZM196.705 34.345C195.335 34.345 194.245 34.14 193.435 33.73C192.635 33.31 192.06 32.69 191.71 31.87C191.37 31.05 191.2 30.04 191.2 28.84V20.92H196.465V27.94C196.465 28.58 196.61 29.05 196.9 29.35C197.19 29.64 197.76 29.785 198.61 29.785C199.07 29.785 199.525 29.735 199.975 29.635C200.435 29.525 200.85 29.4 201.22 29.26L200.77 33.61C200.25 33.83 199.65 34.005 198.97 34.135C198.29 34.275 197.535 34.345 196.705 34.345ZM200.62 23.38H189.355V19.225H201.07L200.62 23.38ZM196.315 19.585H191.275L191.26 15.88L196.495 15.415L196.315 19.585Z"></path>
</svg>
