<?xml version="1.0" encoding="UTF-8"?>
<!DOCTYPE svg PUBLIC "-//W3C//DTD SVG 1.1//EN" "http://www.w3.org/Graphics/SVG/1.1/DTD/svg11.dtd">
<svg xmlns="http://www.w3.org/2000/svg" version="1.1" width="291px" height="173px" style="shape-rendering:geometricPrecision; text-rendering:geometricPrecision; image-rendering:optimizeQuality; fill-rule:evenodd; clip-rule:evenodd" xmlns:xlink="http://www.w3.org/1999/xlink">
<g><path style="opacity:1" fill="#fcfbfc" d="M -0.5,-0.5 C 6.5,-0.5 13.5,-0.5 20.5,-0.5C 15.935,1.4539 11.6017,3.9539 7.5,7C 4.1637,11.1834 1.49703,15.6834 -0.5,20.5C -0.5,13.5 -0.5,6.5 -0.5,-0.5 Z"/></g>
<g><path style="opacity:1" fill="#9b5c8f" d="M 20.5,-0.5 C 102.5,-0.5 184.5,-0.5 266.5,-0.5C 278.192,2.18633 286.192,9.18633 290.5,20.5C 290.5,53.8333 290.5,87.1667 290.5,120.5C 287.636,134.028 279.302,141.695 265.5,143.5C 236.492,143.167 207.492,143.5 178.5,144.5C 178.624,145.107 178.957,145.44 179.5,145.5C 182.537,154.112 185.871,162.612 189.5,171C 172.694,162.591 156.027,153.591 139.5,144C 99.5,143.667 59.5,143.333 19.5,143C 7.89077,139.234 1.22411,131.401 -0.5,119.5C -0.5,86.5 -0.5,53.5 -0.5,20.5C 1.49703,15.6834 4.1637,11.1834 7.5,7C 11.6017,3.9539 15.935,1.4539 20.5,-0.5 Z"/></g>
<g><path style="opacity:1" fill="#fbf9fb" d="M 266.5,-0.5 C 274.5,-0.5 282.5,-0.5 290.5,-0.5C 290.5,6.5 290.5,13.5 290.5,20.5C 286.192,9.18633 278.192,2.18633 266.5,-0.5 Z"/></g>
<g><path style="opacity:1" fill="#fdfcfd" d="M 122.5,15.5 C 130.242,14.5797 134.908,17.913 136.5,25.5C 128.944,43.7701 124.111,62.7701 122,82.5C 121.155,96.8776 120.155,111.211 119,125.5C 115.334,130.875 110.834,131.708 105.5,128C 91.4703,113.449 81.9703,96.2826 77,76.5C 69.6667,90.5 62.3333,104.5 55,118.5C 52.2031,122.299 49.0364,125.799 45.5,129C 43.1667,129.667 40.8333,129.667 38.5,129C 35.7388,126.148 33.7388,122.815 32.5,119C 23.0581,88.4603 17.2248,57.2936 15,25.5C 19.2485,20.4041 24.4151,19.2375 30.5,22C 31.7014,22.9025 32.5348,24.0692 33,25.5C 36.6903,47.6182 41.0236,69.6182 46,91.5C 54.6667,74.8333 63.3333,58.1667 72,41.5C 75.3924,35.5333 80.2258,34.0333 86.5,37C 87.7014,37.9025 88.5348,39.0692 89,40.5C 92.0617,55.4128 96.0617,70.0795 101,84.5C 102.817,68.5999 105.817,52.9332 110,37.5C 111.943,31.672 114.276,26.0053 117,20.5C 118.73,18.5981 120.563,16.9314 122.5,15.5 Z"/></g>
<g><path style="opacity:1" fill="#fdfcfd" d="M 163.5,28.5 C 189.463,27.7061 202.13,40.3728 201.5,66.5C 201.927,85.4708 194.927,100.971 180.5,113C 165.416,120.516 152.25,118.016 141,105.5C 128.2,78.1364 132.7,53.9698 154.5,33C 157.592,31.4541 160.592,29.9541 163.5,28.5 Z"/></g>
<g><path style="opacity:1" fill="#fdfcfd" d="M 237.5,28.5 C 263.457,27.6852 276.123,40.3518 275.5,66.5C 275.927,85.4708 268.927,100.971 254.5,113C 239.411,120.515 226.244,118.015 215,105.5C 202.442,78.7418 206.608,54.9085 227.5,34C 230.767,31.8703 234.1,30.037 237.5,28.5 Z"/></g>
<g><path style="opacity:1" fill="#9b5d8f" d="M 241.5,48.5 C 249.244,47.4064 253.744,50.7397 255,58.5C 257.734,71.3971 254.901,82.8971 246.5,93C 241.73,97.3306 236.897,97.4972 232,93.5C 224.253,76.1593 227.42,61.1593 241.5,48.5 Z"/></g>
<g><path style="opacity:1" fill="#9b5c8f" d="M 167.5,48.5 C 170.93,48.1065 174.096,48.7732 177,50.5C 183.656,64.671 182.656,78.3377 174,91.5C 164.972,99.5509 158.638,97.8842 155,86.5C 151.483,71.2224 155.65,58.5558 167.5,48.5 Z"/></g>
<g><path style="opacity:1" fill="#fefdfe" d="M -0.5,119.5 C 1.22411,131.401 7.89077,139.234 19.5,143C 59.5,143.333 99.5,143.667 139.5,144C 156.027,153.591 172.694,162.591 189.5,171C 185.871,162.612 182.537,154.112 179.5,145.5C 208.167,144.833 236.833,144.167 265.5,143.5C 279.302,141.695 287.636,134.028 290.5,120.5C 290.5,137.833 290.5,155.167 290.5,172.5C 193.5,172.5 96.5,172.5 -0.5,172.5C -0.5,154.833 -0.5,137.167 -0.5,119.5 Z"/></g>
<g><path style="opacity:1" fill="#d5c0d1" d="M 265.5,143.5 C 236.833,144.167 208.167,144.833 179.5,145.5C 178.957,145.44 178.624,145.107 178.5,144.5C 207.492,143.5 236.492,143.167 265.5,143.5 Z"/></g>
</svg>
